<svg width="25" height="22" viewBox="0 0 25 22" fill="none" xmlns="http://www.w3.org/2000/svg">
<path d="M3.3346 10.75C2.32445 10.75 1.50195 11.5989 1.50195 12.6414V18.6939C1.50195 19.7364 2.32445 20.5853 3.3346 20.5853H5.53379C5.94652 20.5853 6.32623 20.4415 6.63339 20.2024V10.75H3.3346Z" stroke="#AFAFAF" stroke-width="1.4"/>
<path d="M23.4982 12.9996C23.4982 12.4642 23.2862 11.9653 22.9182 11.5973C23.3343 11.1421 23.5463 10.5318 23.4884 9.89665C23.3842 8.76433 22.3641 7.87701 21.165 7.87701H15.662C15.9346 7.04937 16.3712 5.53223 16.3712 4.3135C16.3712 2.38119 14.7293 0.75 13.6985 0.75C12.7729 0.75 12.1118 1.27116 12.0834 1.29255C11.9783 1.37719 11.9168 1.50548 11.9168 1.64087V4.66183L9.35105 10.22L9.24414 10.2744V19.8228C9.9693 20.1649 10.8869 20.3493 11.4713 20.3493H19.6487C20.6189 20.3493 21.4679 19.6954 21.6674 18.793C21.7699 18.3288 21.7102 17.8611 21.5062 17.4549C22.1646 17.1235 22.6073 16.4455 22.6073 15.6722C22.6073 15.3568 22.5352 15.0548 22.398 14.7814C23.0563 14.4499 23.4982 13.772 23.4982 12.9996Z" stroke="#AFAFAF" stroke-width="1.4"/>
</svg>
