<svg width="25" height="25" viewBox="0 0 25 25" fill="none" xmlns="http://www.w3.org/2000/svg">
<path d="M24.7477 19.1549L20.8356 15.2422L21.6077 14.6813C21.9756 14.415 22.2494 14.0388 22.3897 13.6069C22.5301 13.175 22.5296 12.7097 22.3885 12.2781L21.8613 10.6556C21.8056 10.4852 21.8056 10.3016 21.8613 10.1313L22.3885 8.50871C22.5297 8.07708 22.5301 7.61178 22.3897 7.17989C22.2494 6.74799 21.9756 6.37182 21.6077 6.10558L20.2274 5.10268C20.0822 4.9977 19.9743 4.84912 19.9193 4.67855L19.392 3.05596C19.2525 2.62382 18.9794 2.24714 18.612 1.98021C18.2446 1.71329 17.802 1.56989 17.3479 1.5707H15.6417C15.4614 1.5707 15.289 1.51468 15.1431 1.4087L13.7629 0.405864C13.3959 0.138306 12.9535 -0.00585938 12.4994 -0.00585938C12.0453 -0.00585938 11.6029 0.138306 11.236 0.405864L9.85567 1.40877C9.71093 1.51438 9.53629 1.57113 9.35712 1.57077H7.65098C7.19686 1.56994 6.75421 1.71333 6.38682 1.98026C6.01942 2.24719 5.74627 2.62387 5.60673 3.05602L5.07948 4.67868C5.02442 4.84918 4.9165 4.99771 4.77136 5.10275L3.39111 6.10558C3.02324 6.37184 2.74941 6.74801 2.60907 7.1799C2.46874 7.61178 2.46915 8.07707 2.61025 8.50871L3.1375 10.1313C3.19319 10.3016 3.19319 10.4852 3.1375 10.6555L2.61025 12.2782C2.46914 12.7098 2.46872 13.1751 2.60906 13.607C2.74939 14.0389 3.02323 14.415 3.39111 14.6813L4.16317 15.2422L0.251045 19.1549C0.174633 19.2313 0.118466 19.3256 0.0876157 19.4292C0.0567656 19.5327 0.0522049 19.6424 0.0743457 19.7482C0.0964866 19.8539 0.144631 19.9525 0.214431 20.0351C0.284231 20.1176 0.373487 20.1814 0.474136 20.2208L3.61621 21.4501L4.84559 24.5922C4.88496 24.6929 4.94879 24.7821 5.03132 24.8519C5.11384 24.9217 5.21245 24.9699 5.31824 24.992C5.42404 25.0141 5.53368 25.0096 5.63726 24.9787C5.74084 24.9479 5.83511 24.8917 5.91153 24.8152L10.7208 20.0066L11.236 20.3809C11.603 20.6484 12.0453 20.7925 12.4994 20.7926C12.9535 20.7925 13.3958 20.6484 13.7628 20.3809L14.2781 20.0065L19.0874 24.8152C19.1638 24.8917 19.258 24.9479 19.3616 24.9788C19.4652 25.0096 19.5749 25.0142 19.6806 24.9921C19.7864 24.9699 19.8851 24.9218 19.9676 24.852C20.0501 24.7822 20.1139 24.6929 20.1533 24.5922L21.3826 21.4501L24.5247 20.2208C24.6253 20.1814 24.7146 20.1175 24.7844 20.035C24.8541 19.9525 24.9023 19.8539 24.9244 19.7482C24.9465 19.6424 24.942 19.5328 24.9111 19.4292C24.8803 19.3256 24.8241 19.2314 24.7477 19.1549ZM5.69488 23.1918L4.72425 20.711C4.69155 20.6274 4.6419 20.5515 4.57842 20.488C4.51495 20.4245 4.43902 20.3749 4.35543 20.3422L1.87462 19.3715L5.09373 16.1519L5.60679 17.7308C5.74633 18.163 6.01948 18.5397 6.38687 18.8066C6.75426 19.0736 7.19692 19.2169 7.65105 19.2161H9.35718C9.45009 19.2161 9.54085 19.2313 9.62699 19.2602L5.69488 23.1918ZM12.0008 19.3283L10.6205 18.3254C10.2537 18.0578 9.81121 17.914 9.35718 17.9149H7.65105C7.47184 17.9152 7.29715 17.8587 7.15217 17.7533C7.00719 17.648 6.89941 17.4993 6.84437 17.3288L6.31712 15.7062C6.18225 15.291 5.92864 14.9344 5.58396 14.6691C5.57217 14.659 5.56002 14.6495 5.54752 14.6404C5.54368 14.6375 5.54017 14.6343 5.53627 14.6315L4.15602 13.6286C4.01085 13.5235 3.9028 13.3751 3.84742 13.2047C3.79204 13.0342 3.79221 12.8506 3.84789 12.6803L4.37514 11.0577C4.51632 10.6262 4.51632 10.1608 4.37514 9.7293L3.84789 8.10677C3.79221 7.93642 3.79204 7.75279 3.84742 7.58234C3.90279 7.41189 4.01085 7.26342 4.15602 7.15832L5.53627 6.15548C5.90416 5.88937 6.17768 5.51293 6.31712 5.08082L6.84437 3.45822C6.89942 3.28768 7.0072 3.13903 7.15218 3.03369C7.29716 2.92835 7.47184 2.87177 7.65105 2.8721H9.35718C9.81125 2.87302 10.2538 2.72922 10.6206 2.46157L12.0008 1.4588C12.1456 1.35319 12.3202 1.29628 12.4994 1.29628C12.6786 1.29628 12.8532 1.35319 12.998 1.4588L14.3783 2.4617C14.7451 2.72934 15.1876 2.87314 15.6417 2.87223H17.3479C17.5271 2.87192 17.7017 2.92852 17.8467 3.03385C17.9916 3.13919 18.0994 3.28783 18.1545 3.45835L18.6817 5.08089C18.8211 5.51304 19.0946 5.88951 19.4626 6.15561L20.8429 7.15852C20.988 7.26361 21.0961 7.41207 21.1515 7.58251C21.2068 7.75295 21.2066 7.93656 21.1509 8.1069L20.6237 9.72956C20.4826 10.1611 20.4826 10.6264 20.6237 11.0579L21.1509 12.6805C21.2066 12.8508 21.2068 13.0345 21.1514 13.2049C21.0961 13.3753 20.988 13.5238 20.8428 13.6289L19.4626 14.6316C19.4578 14.6352 19.4535 14.6391 19.4487 14.6426C19.4377 14.6508 19.4268 14.6592 19.4162 14.6682C19.0708 14.9336 18.8168 15.2906 18.6817 15.7063L18.1545 17.329C18.0994 17.4995 17.9917 17.6481 17.8467 17.7535C17.7017 17.8588 17.5271 17.9154 17.3479 17.9151H15.6417C15.1876 17.9142 14.7451 18.058 14.3783 18.3256L12.9981 19.3284C12.8532 19.4339 12.6786 19.4908 12.4994 19.4907C12.3202 19.4907 12.1456 19.4338 12.0008 19.3283ZM20.6434 20.3422C20.5598 20.3749 20.4839 20.4245 20.4204 20.488C20.357 20.5515 20.3073 20.6274 20.2746 20.711L19.304 23.1918L15.3718 19.2602C15.4587 19.231 15.5499 19.2161 15.6416 19.2162H17.3478C17.8019 19.217 18.2445 19.0736 18.6119 18.8067C18.9793 18.5398 19.2524 18.1631 19.392 17.731L19.905 16.1519L23.1243 19.3716L20.6434 20.3422Z" fill="#AFAFAF"/>
<path d="M15.5084 15.2197C15.6032 15.2197 15.6968 15.199 15.7827 15.1591C15.8686 15.1192 15.9448 15.0609 16.0059 14.9885C16.0669 14.9161 16.1115 14.8312 16.1363 14.7397C16.1612 14.6483 16.1658 14.5525 16.1498 14.4592L15.6329 11.4458L17.8223 9.31167C17.9092 9.22693 17.9707 9.11956 17.9998 9.0017C18.0289 8.88384 18.0244 8.76019 17.9869 8.64473C17.9494 8.52928 17.8803 8.42662 17.7875 8.34837C17.6947 8.27012 17.5818 8.21939 17.4617 8.20194L14.436 7.76226L13.083 5.02056C13.0292 4.91172 12.9461 4.82007 12.843 4.75599C12.7399 4.69192 12.6209 4.65796 12.4995 4.65796C12.3781 4.65796 12.2592 4.69192 12.1561 4.75599C12.053 4.82007 11.9699 4.91172 11.9161 5.02056L10.5631 7.76226L7.53744 8.20194C7.41731 8.21942 7.30448 8.27015 7.21168 8.3484C7.11888 8.42666 7.04982 8.52931 7.01231 8.64476C6.9748 8.76021 6.97034 8.88384 6.99942 9.0017C7.0285 9.11955 7.08996 9.22692 7.17687 9.31167L9.36621 11.4458L8.84937 14.4592C8.82888 14.5788 8.84226 14.7018 8.888 14.8142C8.93375 14.9267 9.01003 15.0241 9.10823 15.0954C9.20643 15.1668 9.32263 15.2092 9.4437 15.218C9.56477 15.2267 9.68587 15.2015 9.79333 15.145L12.4995 13.7223L15.2057 15.145C15.2991 15.1941 15.4029 15.2197 15.5084 15.2197ZM12.8022 12.4114C12.7089 12.3623 12.605 12.3367 12.4995 12.3367C12.394 12.3367 12.2901 12.3623 12.1968 12.4114L10.3547 13.3799L10.7065 11.3286C10.7244 11.2246 10.7166 11.1179 10.684 11.0175C10.6514 10.9172 10.5949 10.8263 10.5194 10.7527L9.02913 9.30002L11.0887 9.00068C11.1931 8.98552 11.2922 8.9452 11.3775 8.88321C11.4629 8.82121 11.5318 8.73939 11.5785 8.6448L12.4995 6.77862L13.4205 8.64487C13.4672 8.73945 13.5362 8.82126 13.6215 8.88326C13.7068 8.94525 13.806 8.98557 13.9103 9.00074L15.9699 9.30009L14.4796 10.7527C14.4041 10.8264 14.3476 10.9173 14.315 11.0176C14.2824 11.1179 14.2747 11.2247 14.2925 11.3287L14.6443 13.3799L12.8022 12.4114Z" fill="#AFAFAF"/>
</svg>
