<svg width="25" height="25" viewBox="0 0 25 25" fill="none" xmlns="http://www.w3.org/2000/svg">
<path fill-rule="evenodd" clip-rule="evenodd" d="M22.994 5.70373C22.994 5.70373 22.994 5.70374 22.994 5.70373C23.0274 7.75055 22.9421 11.0824 22.2077 13.7874C20.7931 18.9983 17.8298 22.6649 13.5969 24.4725C13.1816 24.6499 12.754 24.8093 12.3145 24.9506L12.159 24.9999L12.0002 24.9831H11.9969L11.8414 24.9999L11.686 24.9506C11.2441 24.8086 10.8143 24.6482 10.3969 24.4697C6.16759 22.6611 3.20662 18.9955 1.79279 13.7874C1.05832 11.0823 0.97221 7.75032 1.00614 5.70352C1.00622 5.69906 1.0063 5.69399 1.00638 5.68954C1.01169 5.37478 1.01984 5.0907 1.02887 4.8443C1.03189 4.74096 1.0597 4.64025 1.10958 4.55207C1.15945 4.46388 1.22968 4.39126 1.31335 4.34133C1.39702 4.29139 1.49126 4.26588 1.5868 4.26728C1.68235 4.26868 1.77591 4.29696 1.8583 4.34933C2.60445 4.81907 3.76588 5.42817 4.79295 5.42817C5.2593 5.42817 5.73564 5.35128 6.22419 5.1903C6.53119 5.09146 6.83075 4.96736 7.12024 4.81907H7.12135C8.607 4.05139 9.97162 2.69623 11.2252 1.34828C11.432 1.12777 11.7099 1.00285 12.0002 0.999878C12.2906 1.00285 12.5685 1.12777 12.7753 1.34828C14.0288 2.69623 15.3935 4.05139 16.8791 4.81907C17.1691 4.96717 17.469 5.09127 17.7763 5.1903C18.2648 5.35128 18.74 5.42817 19.2075 5.42817C20.2346 5.42817 21.396 4.82027 22.1422 4.34933C22.2245 4.29696 22.3181 4.26868 22.4137 4.26728C22.5092 4.26588 22.6034 4.29139 22.6871 4.34133C22.7708 4.39126 22.841 4.46388 22.8909 4.55207C22.9408 4.64025 22.9686 4.74096 22.9716 4.8443C22.9805 5.09056 22.9885 5.37446 22.9937 5.689C22.9938 5.69227 22.9938 5.69555 22.9939 5.69882C22.9939 5.70045 22.994 5.7021 22.994 5.70373ZM17.2805 6.71157C16.8928 6.58633 16.5153 6.42989 16.1513 6.24396L16.1446 6.24053C14.5658 5.42474 13.1708 4.09358 12.0002 2.86038C10.8296 4.09358 9.4346 5.42473 7.85586 6.24051L7.51031 6.41907H7.48244C7.23344 6.53031 6.97885 6.62801 6.71962 6.71167C6.08035 6.92174 5.43697 7.02817 4.79295 7.02817C4.026 7.02817 3.26426 6.81371 2.60027 6.53994C2.60475 8.5091 2.74567 11.1907 3.33688 13.3681C4.75335 18.586 7.77223 21.9466 12.0002 23.3697C16.2282 21.9466 19.2471 18.586 20.6636 13.3682C21.2547 11.1912 21.395 8.5102 21.3997 6.54059C20.7356 6.81422 19.9742 7.02817 19.2075 7.02817C18.5621 7.02817 17.9197 6.92164 17.2805 6.71157Z" fill="#AFAFAF"/>
<path fill-rule="evenodd" clip-rule="evenodd" d="M17.5659 8.43414C17.8783 8.74656 17.8783 9.2531 17.5659 9.56551L10.8712 16.2602L6.43451 11.8236C6.12209 11.5112 6.12209 11.0046 6.43451 10.6922C6.74693 10.3798 7.25346 10.3798 7.56588 10.6922L10.8712 13.9975L16.4345 8.43414C16.7469 8.12172 17.2535 8.12172 17.5659 8.43414Z" fill="#AFAFAF"/>
</svg>
