<svg width="23" height="23" viewBox="0 0 23 23" fill="none" xmlns="http://www.w3.org/2000/svg">
<path d="M11.5009 7.16372V21.6209M20.1751 11.5009H2.82657H20.1751ZM20.1751 11.5009C20.5586 11.5009 20.9263 11.3485 21.1974 11.0774C21.4685 10.8063 21.6209 10.4386 21.6209 10.0551V8.60943C21.6209 8.226 21.4685 7.85828 21.1974 7.58716C20.9263 7.31603 20.5586 7.16372 20.1751 7.16372H2.82657C2.44315 7.16372 2.07542 7.31603 1.8043 7.58716C1.53318 7.85828 1.38086 8.226 1.38086 8.60943V10.0551C1.38086 10.4386 1.53318 10.8063 1.8043 11.0774C2.07542 11.3485 2.44315 11.5009 2.82657 11.5009H20.1751ZM20.1751 11.5009V18.7294C20.1751 19.4963 19.8705 20.2317 19.3283 20.774C18.786 21.3162 18.0506 21.6209 17.2837 21.6209H5.718C4.95115 21.6209 4.2157 21.3162 3.67345 20.774C3.13121 20.2317 2.82657 19.4963 2.82657 18.7294V11.5009H20.1751ZM11.5009 7.16372V5.718V7.16372ZM11.5009 7.16372H6.75024C6.42483 7.16372 6.10261 7.09962 5.80197 6.97509C5.50133 6.85056 5.22816 6.66804 4.99806 6.43794C4.53336 5.97323 4.27229 5.34296 4.27229 4.68576V4.27229C4.27229 3.50543 4.57692 2.76999 5.11917 2.22774C5.66142 1.68549 6.39686 1.38086 7.16372 1.38086C8.314 1.38086 9.41717 1.83781 10.2305 2.65118C11.0439 3.46455 11.5009 4.56772 11.5009 5.718V7.16372ZM11.5009 7.16372H16.2515C17.6206 7.16372 18.7294 6.05341 18.7294 4.68576V4.27229C18.7294 3.50543 18.4248 2.76999 17.8825 2.22774C17.3403 1.68549 16.6049 1.38086 15.838 1.38086C14.6877 1.38086 13.5846 1.83781 12.7712 2.65118C11.9578 3.46455 11.5009 4.56772 11.5009 5.718V7.16372Z" stroke="#AFAFAF" stroke-width="1.4"/>
</svg>
